<svg width="205" height="205" viewBox="0 0 205 205" fill="none" xmlns="http://www.w3.org/2000/svg">
<path d="M204.329 102.199C204.329 158.438 158.739 204.028 102.5 204.028C46.2611 204.028 0.67041 158.438 0.67041 102.199C0.67041 45.9599 46.2611 0.369263 102.5 0.369263C158.739 0.369263 204.329 45.9599 204.329 102.199ZM14.2489 102.199C14.2489 150.939 53.7602 190.45 102.5 190.45C151.24 190.45 190.751 150.939 190.751 102.199C190.751 53.4591 151.24 13.9477 102.5 13.9477C53.7602 13.9477 14.2489 53.4591 14.2489 102.199Z" fill="#D2D2D2"/>
<path d="M181.743 166.151C193.799 151.211 201.387 133.168 203.631 114.102C205.875 95.0362 202.684 75.7243 194.426 58.3938C186.168 41.0634 173.178 26.4204 156.957 16.1539C140.735 5.88741 121.942 0.415574 102.744 0.369555L102.712 13.948C119.349 13.9878 135.637 18.73 149.695 27.6276C163.754 36.5251 175.011 49.2155 182.168 64.235C189.325 79.2545 192.091 95.9913 190.146 112.515C188.201 129.038 181.625 144.676 171.176 157.623L181.743 166.151Z" fill="#51D289"/>
<path d="M86.6361 107.963H69.2224V105.436L76.3296 98.2201C77.6505 96.8871 78.7593 95.6995 79.656 94.6574C80.5649 93.6152 81.2556 92.5912 81.7282 91.5854C82.2008 90.5675 82.4371 89.4527 82.4371 88.2409C82.4371 86.7382 81.9888 85.5931 81.092 84.8054C80.2074 84.0056 79.038 83.6057 77.5838 83.6057C76.3114 83.6057 75.1845 83.8238 74.2029 84.2601C73.2213 84.6963 72.2155 85.3143 71.1855 86.1141L69.5677 84.0783C70.2706 83.4845 71.034 82.9574 71.858 82.4969C72.6942 82.0364 73.5849 81.6728 74.5301 81.4063C75.4874 81.1397 76.5053 81.0064 77.5838 81.0064C79.2198 81.0064 80.6315 81.2911 81.8191 81.8607C83.0067 82.4302 83.9216 83.2421 84.5639 84.2964C85.2182 85.3507 85.5454 86.6049 85.5454 88.0591C85.5454 89.4648 85.2667 90.7735 84.7093 91.9853C84.1519 93.185 83.3702 94.3787 82.3644 95.5662C81.3586 96.7417 80.1832 97.9899 78.8381 99.3107L73.0577 105.073V105.2H86.6361V107.963ZM108.085 94.6392C108.085 96.7962 107.921 98.723 107.594 100.42C107.267 102.116 106.752 103.552 106.049 104.728C105.346 105.903 104.438 106.8 103.323 107.418C102.208 108.024 100.869 108.327 99.3055 108.327C97.3303 108.327 95.6943 107.787 94.3977 106.709C93.1132 105.63 92.1498 104.073 91.5075 102.037C90.8774 99.9893 90.5623 97.5233 90.5623 94.6392C90.5623 91.8036 90.8471 89.3678 91.4166 87.332C91.9983 85.284 92.9314 83.7147 94.2159 82.6241C95.5004 81.5214 97.197 80.97 99.3055 80.97C101.305 80.97 102.953 81.5153 104.25 82.6059C105.546 83.6845 106.51 85.2477 107.14 87.2956C107.77 89.3315 108.085 91.7793 108.085 94.6392ZM93.5979 94.6392C93.5979 97.1113 93.7857 99.1714 94.1614 100.819C94.5371 102.467 95.143 103.704 95.9791 104.528C96.8274 105.339 97.9362 105.745 99.3055 105.745C100.675 105.745 101.778 105.339 102.614 104.528C103.462 103.716 104.074 102.486 104.45 100.838C104.837 99.1895 105.031 97.1234 105.031 94.6392C105.031 92.2035 104.843 90.1676 104.468 88.5317C104.092 86.8836 103.486 85.6476 102.65 84.8236C101.814 83.9874 100.699 83.5693 99.3055 83.5693C97.9119 83.5693 96.7971 83.9874 95.9609 84.8236C95.1248 85.6476 94.5189 86.8836 94.1432 88.5317C93.7797 90.1676 93.5979 92.2035 93.5979 94.6392ZM117.246 81.0064C119.064 81.0064 120.439 81.7334 121.373 83.1876C122.318 84.6297 122.79 86.6716 122.79 89.3133C122.79 91.955 122.336 94.0151 121.427 95.4935C120.518 96.9598 119.125 97.693 117.246 97.693C115.501 97.693 114.162 96.9598 113.229 95.4935C112.308 94.0151 111.848 91.955 111.848 89.3133C111.848 86.6716 112.29 84.6297 113.175 83.1876C114.059 81.7334 115.417 81.0064 117.246 81.0064ZM117.246 83.1694C116.265 83.1694 115.544 83.6845 115.083 84.7145C114.623 85.7324 114.393 87.2653 114.393 89.3133C114.393 91.3613 114.623 92.9063 115.083 93.9485C115.544 94.9906 116.265 95.5117 117.246 95.5117C118.264 95.5117 119.022 94.9906 119.518 93.9485C120.015 92.9063 120.264 91.3613 120.264 89.3133C120.264 87.2775 120.015 85.7445 119.518 84.7145C119.034 83.6845 118.276 83.1694 117.246 83.1694ZM134.078 81.3881L119.337 107.963H116.683L131.425 81.3881H134.078ZM133.369 91.6582C135.175 91.6582 136.55 92.3852 137.496 93.8394C138.441 95.2815 138.913 97.3234 138.913 99.9651C138.913 102.595 138.459 104.649 137.55 106.127C136.641 107.593 135.248 108.327 133.369 108.327C131.612 108.327 130.273 107.593 129.352 106.127C128.431 104.649 127.971 102.595 127.971 99.9651C127.971 97.3234 128.407 95.2815 129.28 93.8394C130.164 92.3852 131.528 91.6582 133.369 91.6582ZM133.369 93.8394C132.388 93.8394 131.667 94.3484 131.206 95.3663C130.746 96.3842 130.516 97.9171 130.516 99.9651C130.516 102.013 130.746 103.558 131.206 104.6C131.667 105.63 132.388 106.145 133.369 106.145C134.387 106.145 135.145 105.636 135.642 104.618C136.138 103.588 136.387 102.037 136.387 99.9651C136.387 97.9293 136.138 96.4024 135.642 95.3845C135.157 94.3544 134.4 93.8394 133.369 93.8394Z" fill="#1E1E1E"/>
<path d="M86.9186 130.074C86.9186 130.862 86.7217 131.535 86.3277 132.093C85.9398 132.644 85.3943 133.065 84.6913 133.356C83.9882 133.647 83.1609 133.793 82.2093 133.793C81.7063 133.793 81.2305 133.768 80.782 133.72C80.3335 133.671 79.9214 133.602 79.5456 133.511C79.1698 133.42 78.8395 133.308 78.5546 133.174V131.693C79.0092 131.88 79.5638 132.056 80.2183 132.22C80.8729 132.377 81.5578 132.456 82.273 132.456C82.9397 132.456 83.5033 132.368 83.964 132.193C84.4246 132.011 84.7731 131.753 85.0095 131.42C85.2519 131.08 85.3731 130.674 85.3731 130.202C85.3731 129.747 85.2731 129.368 85.0731 129.065C84.8731 128.756 84.5398 128.477 84.0731 128.229C83.6124 127.974 82.9821 127.704 82.1821 127.42C81.6184 127.22 81.1214 127.001 80.6911 126.765C80.2608 126.523 79.9002 126.25 79.6092 125.947C79.3183 125.644 79.0971 125.292 78.9456 124.892C78.8001 124.492 78.7274 124.035 78.7274 123.519C78.7274 122.81 78.9062 122.204 79.2638 121.701C79.6274 121.192 80.1274 120.804 80.7638 120.537C81.4063 120.265 82.1427 120.128 82.973 120.128C83.6821 120.128 84.3367 120.195 84.9367 120.328C85.5428 120.462 86.0974 120.641 86.6004 120.865L86.1186 122.192C85.6398 121.992 85.1307 121.825 84.5913 121.692C84.0579 121.559 83.5064 121.492 82.9366 121.492C82.3669 121.492 81.8851 121.577 81.4911 121.747C81.1032 121.91 80.8063 122.144 80.6002 122.447C80.3941 122.75 80.2911 123.11 80.2911 123.529C80.2911 123.995 80.3881 124.383 80.582 124.692C80.782 125.001 81.0972 125.277 81.5275 125.52C81.9639 125.756 82.5397 126.004 83.2548 126.265C84.0367 126.55 84.7004 126.853 85.2458 127.174C85.7913 127.489 86.2065 127.877 86.4914 128.338C86.7762 128.792 86.9186 129.371 86.9186 130.074ZM94.0917 123.465C95.3342 123.465 96.3251 123.892 97.0645 124.747C97.804 125.601 98.1737 126.886 98.1737 128.601C98.1737 129.735 98.004 130.686 97.6646 131.456C97.3252 132.226 96.8464 132.808 96.2281 133.202C95.616 133.596 94.8917 133.793 94.0553 133.793C93.528 133.793 93.0644 133.723 92.6644 133.584C92.2643 133.444 91.9219 133.256 91.637 133.02C91.3522 132.783 91.1158 132.526 90.9279 132.247H90.8188C90.837 132.483 90.8582 132.768 90.8825 133.102C90.9128 133.435 90.9279 133.726 90.9279 133.974V138.066H89.4097V123.647H90.6552L90.8552 125.119H90.9279C91.1219 124.816 91.3582 124.541 91.637 124.292C91.9158 124.038 92.2552 123.838 92.6553 123.692C93.0613 123.541 93.5401 123.465 94.0917 123.465ZM93.828 124.738C93.1371 124.738 92.5795 124.871 92.1552 125.138C91.737 125.404 91.431 125.804 91.237 126.338C91.0431 126.865 90.94 127.529 90.9279 128.329V128.62C90.9279 129.462 91.0188 130.174 91.2007 130.756C91.3885 131.338 91.6946 131.78 92.1189 132.083C92.5492 132.386 93.125 132.538 93.8462 132.538C94.4644 132.538 94.9796 132.371 95.3917 132.038C95.8039 131.705 96.11 131.241 96.31 130.647C96.516 130.047 96.6191 129.359 96.6191 128.583C96.6191 127.407 96.3888 126.474 95.9281 125.783C95.4736 125.086 94.7735 124.738 93.828 124.738ZM104.647 123.465C105.495 123.465 106.223 123.653 106.829 124.029C107.435 124.404 107.898 124.932 108.22 125.61C108.541 126.283 108.701 127.071 108.701 127.974V128.911H101.819C101.837 130.08 102.128 130.971 102.692 131.583C103.256 132.196 104.05 132.502 105.074 132.502C105.704 132.502 106.262 132.444 106.747 132.329C107.232 132.214 107.735 132.044 108.256 131.82V133.147C107.753 133.371 107.253 133.535 106.756 133.638C106.265 133.741 105.683 133.793 105.01 133.793C104.053 133.793 103.216 133.599 102.501 133.211C101.792 132.817 101.24 132.241 100.847 131.483C100.453 130.726 100.256 129.798 100.256 128.701C100.256 127.629 100.434 126.701 100.792 125.92C101.156 125.132 101.665 124.526 102.319 124.101C102.98 123.677 103.756 123.465 104.647 123.465ZM104.629 124.701C103.822 124.701 103.18 124.965 102.701 125.492C102.222 126.02 101.937 126.756 101.847 127.701H107.12C107.113 127.107 107.02 126.586 106.838 126.138C106.662 125.683 106.392 125.332 106.029 125.083C105.665 124.829 105.198 124.701 104.629 124.701ZM115.984 123.465C117.165 123.465 118.059 123.756 118.666 124.338C119.272 124.913 119.575 125.841 119.575 127.12V133.611H118.084V127.22C118.084 126.389 117.893 125.768 117.511 125.356C117.135 124.944 116.556 124.738 115.774 124.738C114.671 124.738 113.896 125.05 113.447 125.674C112.999 126.298 112.774 127.204 112.774 128.392V133.611H111.265V123.647H112.483L112.711 125.083H112.793C113.005 124.732 113.274 124.438 113.602 124.201C113.929 123.959 114.296 123.777 114.702 123.656C115.108 123.529 115.535 123.465 115.984 123.465ZM125.902 132.556C126.151 132.556 126.405 132.535 126.666 132.493C126.926 132.45 127.139 132.399 127.302 132.338V133.511C127.126 133.59 126.881 133.656 126.566 133.711C126.257 133.765 125.954 133.793 125.657 133.793C125.129 133.793 124.651 133.702 124.22 133.52C123.79 133.332 123.444 133.017 123.184 132.574C122.929 132.132 122.802 131.52 122.802 130.738V124.829H121.384V124.092L122.811 123.501L123.411 121.338H124.32V123.647H127.239V124.829H124.32V130.692C124.32 131.317 124.463 131.783 124.748 132.093C125.039 132.402 125.423 132.556 125.902 132.556Z" fill="#1E1E1E"/>
</svg>
